<svg width="13" height="13" viewBox="0 0 13 13" fill="none" xmlns="http://www.w3.org/2000/svg">
<path d="M11.7969 5.33929H7.86462C7.73688 5.33929 7.63331 5.23534 7.63331 5.10714V1.16071C7.63331 0.519714 7.11545 0 6.47675 0C5.83804 0 5.32018 0.519714 5.32018 1.16071V5.10714C5.32018 5.23534 5.21661 5.33929 5.08887 5.33929H1.15656C0.517855 5.33929 0 5.859 0 6.5C0 7.141 0.517855 7.66071 1.15656 7.66071H5.08887C5.21661 7.66071 5.32018 7.76466 5.32018 7.89286V11.8393C5.32018 12.4803 5.83804 13 6.47675 13C7.11545 13 7.63331 12.4803 7.63331 11.8393V7.89286C7.63331 7.76466 7.73688 7.66071 7.86462 7.66071H11.7969C12.4356 7.66071 12.9535 7.141 12.9535 6.5C12.9535 5.859 12.4356 5.33929 11.7969 5.33929Z" fill="white"/>
</svg>
