<svg width="18" height="18" viewBox="0 0 18 18" fill="none" xmlns="http://www.w3.org/2000/svg">
<path d="M16.1922 7.3286H10.7948C10.6195 7.3286 10.4773 7.18593 10.4773 7.00997V1.59317C10.4773 0.71335 9.76654 0 8.88986 0C8.01318 0 7.30239 0.71335 7.30239 1.59317V7.00997C7.30239 7.18593 7.16023 7.3286 6.98489 7.3286H1.58748C0.710798 7.3286 0 8.04195 0 8.92178C0 9.8016 0.710798 10.515 1.58748 10.515H6.98489C7.16023 10.515 7.30239 10.6576 7.30239 10.8336V16.2504C7.30239 17.1302 8.01318 17.8436 8.88986 17.8436C9.76654 17.8436 10.4773 17.1302 10.4773 16.2504V10.8336C10.4773 10.6576 10.6195 10.515 10.7948 10.515H16.1922C17.0689 10.515 17.7797 9.8016 17.7797 8.92178C17.7797 8.04195 17.0689 7.3286 16.1922 7.3286Z" fill="#AEAEAE"/>
</svg>
