<svg width="32" height="30" viewBox="0 0 32 30" fill="none" xmlns="http://www.w3.org/2000/svg">
<g clip-path="url(#clip0)">
<path d="M15.8861 30C24.2655 30 31.0585 23.2843 31.0585 15C31.0585 6.71573 24.2655 0 15.8861 0C7.5066 0 0.713692 6.71573 0.713692 15C0.713692 23.2843 7.5066 30 15.8861 30Z" fill="#FF127F"/>
<path d="M31.0585 15C31.0585 14.0559 30.9693 13.1325 30.8006 12.2367L24.2364 5.73295C20.8838 2.31114 15.9424 5.14479 15.8326 5.18744C15.7198 5.14362 10.5039 2.15094 7.15393 6.03031L8.6487 7.51279C6.95212 8.46904 4.78763 10.2147 4.33803 13.0371L6.64038 15.3174C6.47046 15.8137 6.33782 16.3402 6.27867 16.8744L8.96999 19.476C8.86242 19.6555 8.7657 19.8518 8.68136 20.0663L11.2114 22.5786H10.3642C8.91807 22.5786 7.61064 23.4305 7.04049 24.7442L6.24335 26.5805C6.28157 26.612 6.32028 26.6425 6.3588 26.6733C6.39229 26.7 6.42565 26.7269 6.45938 26.7534C6.5171 26.7986 6.57512 26.8435 6.63368 26.8877C6.63824 26.8912 6.64281 26.8947 6.64737 26.8981C6.71375 26.9482 6.78054 26.9979 6.84758 27.0471L6.84716 27.0481C9.37194 28.9025 12.4993 30 15.8861 30C24.2656 30 31.0585 23.2843 31.0585 15Z" fill="#B10853"/>
<path d="M23.3697 12.2095L27.3272 13.0371C26.5662 8.25934 20.8902 6.56645 20.8902 6.56645L24.5113 6.03037C21.1613 2.15094 15.9454 5.14361 15.8326 5.18744C15.7198 5.14361 10.5039 2.15094 7.15393 6.03031L10.775 6.56639C10.775 6.56639 5.09908 8.25928 4.33803 13.0371L8.29553 12.2094C8.29553 12.2094 6.54508 14.4666 6.27873 16.8744C6.27873 16.8744 8.63483 17.2434 10.5747 18.0839C9.77739 18.4256 9.08633 19.0364 8.68142 20.0662C8.68142 20.0662 13.0196 21.3387 14.1041 22.3763H15.8326H17.5611C18.6456 21.3387 22.9838 20.0662 22.9838 20.0662C22.5789 19.0364 21.8878 18.4256 21.0905 18.0839C23.0304 17.2434 25.3865 16.8744 25.3865 16.8744C25.1201 14.4667 23.3697 12.2095 23.3697 12.2095Z" fill="white"/>
<path d="M25.3866 16.8744C25.3866 16.8744 23.0301 17.2435 21.0903 18.0837C21.888 18.4253 22.5791 19.0365 22.9839 20.066C22.9839 20.066 18.6455 21.3386 17.561 22.3763H15.8861V5.16029C16.4562 4.86439 21.3268 2.34252 24.5112 6.03041L20.89 6.56654C20.89 6.56654 26.566 8.25932 27.327 13.0371L23.3697 12.2091C23.3697 12.2091 25.1199 14.4667 25.3866 16.8744Z" fill="#FFF5CB"/>
<path d="M18.4453 20.0684H13.327V26.4522H18.4453V20.0684Z" fill="#FFC473"/>
<path d="M18.4452 20.0684H15.8861V26.4522H18.4452V20.0684Z" fill="#FFAA20"/>
<path d="M21.9163 12.3768C21.6623 8.68003 18.4734 6.58191 15.8325 6.58191C13.1916 6.58191 10.0027 8.68003 9.74865 12.3768C9.0653 12.5034 8.58032 13.1348 8.65636 13.829L8.77406 14.9032C8.8539 15.6319 9.52231 16.1636 10.2594 16.0847L10.3864 16.0711C11.8953 19.9543 14.3304 20.954 15.8325 21.1811C17.3347 20.954 19.7698 19.9542 21.2787 16.0711L21.4057 16.0847C22.1428 16.1636 22.8112 15.6319 22.891 14.9032L23.0087 13.829C23.0846 13.1348 22.5997 12.5034 21.9163 12.3768Z" fill="#FFDBA9"/>
<path d="M23.0091 13.829L22.8912 14.9034C22.8111 15.6321 22.143 16.1635 21.4059 16.0848L21.2786 16.0712C19.7699 19.9544 17.3348 20.9537 15.8326 21.1809V6.58191C18.4375 6.58191 21.5757 8.6232 21.9047 12.2268C21.9095 12.2787 21.9132 12.3286 21.9164 12.3768C22.5999 12.5032 23.0849 13.1349 23.0091 13.829Z" fill="#FFC473"/>
<path d="M14.9086 12.9093H11.7717V14.2531H14.9086V12.9093Z" fill="#FFC473"/>
<path d="M15.8323 12.9094V17.1806H17.1915V14.2532H20.1525V12.9094H15.8323Z" fill="#FFA91F"/>
<path d="M25.3355 26.7357C22.7431 28.7789 19.4585 30 15.8859 30C12.3133 30 9.02871 28.7789 6.43636 26.7357C6.50808 24.7529 7.95182 23.0994 9.85252 22.681C9.87208 22.6769 9.89223 22.6728 9.91238 22.6687C9.93253 22.6646 9.95209 22.6599 9.97224 22.6564C9.97994 22.6547 9.98765 22.6535 9.99476 22.6523C10.0102 22.6488 10.0268 22.6459 10.0428 22.6429C10.0463 22.6424 10.0493 22.6418 10.0528 22.6412C10.0665 22.6388 10.0801 22.6365 10.0937 22.6353C10.121 22.6306 10.1477 22.6265 10.1755 22.6224C10.1803 22.6219 10.1862 22.6207 10.1915 22.6201C10.198 22.6189 10.2046 22.6183 10.2117 22.6172C10.2271 22.6154 10.2425 22.6131 10.2585 22.6113C10.2609 22.6107 10.2638 22.6107 10.2662 22.6101C10.2727 22.6095 10.2781 22.6084 10.2846 22.6084C10.2923 22.6072 10.3012 22.606 10.3095 22.6054C10.3498 22.6008 10.3907 22.5972 10.4316 22.5937C10.4339 22.5937 10.4357 22.5931 10.4381 22.5931C10.4511 22.592 10.4642 22.5908 10.4778 22.5896C10.4802 22.5896 10.4837 22.589 10.4867 22.589C10.5098 22.5879 10.5323 22.5861 10.5554 22.5849C10.5945 22.5826 10.6348 22.5808 10.6751 22.5797C10.7154 22.5791 10.7558 22.5785 10.7966 22.5785H20.9752C21.0096 22.5785 21.0439 22.5791 21.0777 22.5797H21.0967C21.1038 22.5797 21.1115 22.5802 21.1192 22.5808C21.1233 22.5808 21.1281 22.5808 21.1328 22.5814C21.1607 22.582 21.1885 22.5832 21.2158 22.5849H21.2164C21.2395 22.5861 21.262 22.5879 21.2851 22.589C21.2881 22.589 21.2917 22.5896 21.294 22.5896C21.3077 22.5908 21.3207 22.592 21.3337 22.5931C21.3361 22.5931 21.3379 22.5937 21.3403 22.5937C21.3818 22.5967 21.4226 22.6002 21.4624 22.6054C21.4707 22.606 21.4795 22.6072 21.4872 22.6084C21.4938 22.6084 21.4991 22.6095 21.5056 22.6101C21.508 22.6107 21.511 22.6107 21.5133 22.6113C21.5293 22.6131 21.5447 22.6154 21.5601 22.6172C21.5673 22.6183 21.5738 22.6189 21.5803 22.6201C21.585 22.6207 21.5904 22.6213 21.5945 22.6224H21.5963C21.6378 22.6283 21.6781 22.6347 21.719 22.6412C21.7225 22.6418 21.7255 22.6424 21.7291 22.6429C21.7451 22.6459 21.7617 22.6488 21.7771 22.6523C21.802 22.6564 21.8268 22.6617 21.8517 22.6664C21.8671 22.6699 21.882 22.6728 21.8968 22.6763C21.9045 22.6775 21.9122 22.6793 21.9193 22.681C23.82 23.0994 25.2637 24.7529 25.3355 26.7357Z" fill="#FFDBA9"/>
<path d="M25.3356 26.7357C22.7433 28.7789 19.4587 30 15.8861 30V22.5785H20.9753C21.0097 22.5785 21.0441 22.5791 21.0779 22.5797H21.0968C21.1039 22.5797 21.1116 22.5802 21.1193 22.5808C21.1235 22.5808 21.1282 22.5808 21.133 22.5814C21.1608 22.582 21.1887 22.5832 21.216 22.5849H21.2165C21.2397 22.5861 21.2622 22.5879 21.2853 22.589C21.2883 22.589 21.2918 22.5896 21.2942 22.5896C21.3078 22.5908 21.3209 22.592 21.3339 22.5931C21.3363 22.5931 21.338 22.5937 21.3404 22.5937C21.3819 22.5967 21.4228 22.6002 21.4625 22.6054C21.4708 22.606 21.4797 22.6072 21.4874 22.6084C21.4939 22.6084 21.4993 22.6095 21.5058 22.6101C21.5081 22.6107 21.5111 22.6107 21.5135 22.6113C21.5295 22.6131 21.5449 22.6154 21.5603 22.6172C21.5674 22.6183 21.5739 22.6189 21.5804 22.6201C21.5852 22.6207 21.5905 22.6213 21.5947 22.6224H21.5964C21.6379 22.6283 21.6782 22.6347 21.7191 22.6412C21.7227 22.6418 21.7257 22.6424 21.7292 22.6429C21.7452 22.6459 21.7618 22.6488 21.7772 22.6523C21.8021 22.6564 21.827 22.6617 21.8519 22.6664C21.8673 22.6699 21.8821 22.6728 21.8969 22.6763C21.9046 22.6775 21.9123 22.6793 21.9195 22.681C23.8201 23.0994 25.2639 24.7529 25.3356 26.7357Z" fill="#FFC473"/>
<path d="M20.0001 22.5785V29.4416C19.4773 29.5869 18.9439 29.7052 18.3998 29.7949C17.8943 29.8781 17.3805 29.9367 16.8595 29.9695C16.5377 29.99 16.2135 30 15.8863 30C15.5592 30 15.235 29.99 14.9132 29.9695C14.3922 29.9367 13.8784 29.8781 13.3728 29.7949C12.8287 29.7052 12.2953 29.5869 11.7726 29.4416V22.5785H20.0001Z" fill="#00D9E0"/>
<path d="M19.9998 22.5785V29.4416C19.4771 29.5869 18.9437 29.7052 18.3996 29.7949C17.894 29.8781 17.3802 29.9367 16.8592 29.9695C16.5374 29.99 16.2132 30 15.8861 30V22.5785H19.9998Z" fill="#00989D"/>
<path d="M14.913 29.9695C14.392 29.9367 13.8782 29.8781 13.3726 29.7949C10.7785 29.3672 8.40781 28.289 6.43659 26.7357C6.37199 26.6847 6.30739 26.6332 6.24338 26.5804L7.04052 24.7441C7.61067 23.4304 8.9181 22.5785 10.3642 22.5785H12.8552L14.913 29.9695Z" fill="white"/>
<path d="M25.529 26.5804C25.465 26.6332 25.4004 26.6847 25.3358 26.7357C23.3646 28.289 20.9939 29.3672 18.3998 29.7949C17.8942 29.8781 17.3804 29.9367 16.8594 29.9695L18.9172 22.5785H21.4082C22.8543 22.5785 24.1617 23.4304 24.7319 24.7441L25.529 26.5804Z" fill="#FFF5CB"/>
<path d="M13.3726 29.7949L13.6381 29.1709L10.1265 24.3627L12.8552 22.5785L14.913 29.9695C14.392 29.9367 13.8782 29.8781 13.3726 29.7949Z" fill="#FFF5CB"/>
<path d="M18.1343 29.1709L18.3998 29.7949C17.8942 29.8781 17.3804 29.9367 16.8594 29.9695L18.9172 22.5785L21.6458 24.3627L18.1343 29.1709Z" fill="#FFDF47"/>
<path d="M21.5921 9.08208C20.3424 5.21489 15.8325 5.27349 15.8325 5.27349C15.8325 5.27349 11.3227 5.21489 10.073 9.08208L9.69518 12.3769L13.2868 9.08208L15.8325 11.4258L18.3781 9.08208L21.9698 12.3769L21.5921 9.08208Z" fill="white"/>
<path d="M21.9698 12.3768L18.3782 9.08205L15.8861 11.376V5.27405C16.4005 5.28225 20.423 5.46448 21.5917 9.08205L21.9698 12.3768Z" fill="#FFF5CB"/>
<path d="M19.4706 18.5574C19.4706 18.5574 18.8832 18.5737 17.6956 17.7927C16.8034 17.206 16.1183 17.6386 15.8326 17.8901C15.5469 17.6386 14.8618 17.206 13.9696 17.7927C12.782 18.5737 12.1946 18.5574 12.1946 18.5574C12.1946 18.5574 14.354 19.9592 15.8326 18.6192C17.3112 19.9593 19.4706 18.5574 19.4706 18.5574Z" fill="white"/>
<path d="M19.4705 18.5572C19.4705 18.5572 17.3624 19.9259 15.8861 18.6661V17.8447C16.1978 17.5921 16.8551 17.24 17.6955 17.7925C18.8832 18.5736 19.4705 18.5572 19.4705 18.5572Z" fill="#FFF5CB"/>
<path d="M11.0801 13.0508V15.3376C11.0801 15.9992 11.6225 16.5354 12.2916 16.5354H14.255C14.671 16.5354 15.0405 16.2724 15.1724 15.8824L15.4758 14.9856C15.5903 14.6469 16.075 14.6469 16.1896 14.9856L16.493 15.8824C16.6249 16.2724 16.9943 16.5354 17.4103 16.5354H19.3737C20.0428 16.5354 20.5853 15.9992 20.5853 15.3376V13.0508H11.0801Z" fill="#49BBEE"/>
<path d="M20.585 13.0507V15.3376C20.585 15.9992 20.0426 16.5353 19.3735 16.5353H17.4102C16.9941 16.5353 16.6249 16.2723 16.4928 15.8824L16.1894 14.9855C16.132 14.8161 15.9823 14.7313 15.8326 14.7313V13.0507H20.585Z" fill="#009AE5"/>
<path d="M19.3737 16.8303H17.4103C16.8652 16.8303 16.3828 16.487 16.2099 15.9759L15.9065 15.0791C15.8948 15.0442 15.8699 15.0265 15.8326 15.0265C15.7954 15.0265 15.7705 15.0442 15.7587 15.0792L15.4553 15.976C15.2825 16.487 14.8001 16.8304 14.255 16.8304H12.2916C11.459 16.8304 10.7817 16.1607 10.7817 15.3376V12.7557H20.8836V15.3376C20.8836 16.1607 20.2063 16.8303 19.3737 16.8303ZM15.8327 14.4364C16.1278 14.4364 16.379 14.6152 16.4726 14.8919L16.776 15.7888C16.8674 16.0588 17.1223 16.2403 17.4103 16.2403H19.3737C19.8772 16.2403 20.2869 15.8353 20.2869 15.3375V13.3457H11.3785V15.3375C11.3785 15.8353 11.7882 16.2403 12.2917 16.2403H14.2551C14.5431 16.2403 14.798 16.0588 14.8894 15.7888L15.1928 14.8919C15.2864 14.6152 15.5376 14.4364 15.8327 14.4364Z" fill="white"/>
<path d="M15.8327 12.7557V13.3457H20.2867V15.3376C20.2867 15.8355 19.8772 16.2404 19.3736 16.2404H17.4103C17.1224 16.2404 16.8675 16.059 16.7759 15.7887L16.4726 14.8918C16.379 14.6153 16.1279 14.4365 15.8327 14.4365V15.0265C15.87 15.0265 15.8949 15.0442 15.9066 15.0791L16.2099 15.976C16.3828 16.4869 16.8652 16.8303 17.4103 16.8303H19.3736C20.2061 16.8303 20.8835 16.1606 20.8835 15.3375V12.7556L15.8327 12.7557Z" fill="#FFF5CB"/>
<path d="M20.8835 12.2062H10.7814V12.8476H20.8835V12.2062Z" fill="#3A4DE3"/>
<path d="M20.8836 12.2062H15.8329V12.8475H20.8836V12.2062Z" fill="#1C2EDE"/>
</g>
<defs>
<clipPath id="clip0">
<rect width="30.3448" height="30" fill="white" transform="translate(0.713692)"/>
</clipPath>
</defs>
</svg>
