<svg width="101" height="101" viewBox="0 0 101 101" fill="none" xmlns="http://www.w3.org/2000/svg">
<g clip-path="url(#clip0)">
<path d="M0 30.4778V92.5717C0 97.2218 3.76442 100.988 8.41673 100.988H92.5835C97.2316 100.988 101 97.222 101 92.5717V30.4778H0Z" fill="#F2F2F2"/>
<path d="M24.0822 47.5911H38.944V84.2983H31.0701V54.577H24.0822V47.5911Z" fill="#40596B"/>
<path d="M61.7363 84.7192C56.661 84.7192 52.8631 82.9958 50.34 79.5471C47.8213 76.0983 46.5588 71.4945 46.5588 65.7353C46.5588 59.9805 47.8213 55.3702 50.34 51.9236C52.8629 48.4791 56.661 46.7515 61.7363 46.7515C66.8115 46.7515 70.6138 48.4789 73.1325 51.9236C75.6553 55.3724 76.9137 59.9805 76.9137 65.7353C76.9137 71.4945 75.6553 76.1004 73.1325 79.5471C70.6138 82.9937 66.8115 84.7192 61.7363 84.7192ZM56.3286 56.8852C55.1734 59.124 54.5948 62.0845 54.5948 65.7606C54.5948 69.4323 55.1734 72.395 56.3286 74.6359C57.4838 76.8769 59.287 77.9983 61.7363 77.9983C64.1855 77.9983 65.9887 76.8769 67.1482 74.6359C68.3034 72.3972 68.8779 69.4323 68.8779 65.7606C68.8779 62.0845 68.3034 59.1261 67.1482 56.8852C65.9889 54.6484 64.1855 53.5206 61.7363 53.5206C59.287 53.5206 57.4816 54.6484 56.3286 56.8852Z" fill="#40596B"/>
<path d="M92.5833 6H8.41673C3.76856 6 0 9.76856 0 14.4167V30.4905H101V14.4167C101 9.76856 97.2314 6 92.5833 6Z" fill="#FF7058"/>
<path d="M87.6279 18.2422C87.6279 21.531 84.964 24.1971 81.6731 24.1971C78.3842 24.1971 75.7225 21.531 75.7225 18.2422C75.7225 14.9534 78.3864 12.2874 81.6731 12.2874C84.964 12.2874 87.6279 14.9534 87.6279 18.2422Z" fill="white"/>
<path d="M25.2837 18.2422C25.2837 21.531 22.6157 24.1971 19.3288 24.1971C16.042 24.1971 13.3783 21.531 13.3783 18.2422C13.3783 14.9534 16.0422 12.2874 19.3288 12.2874C22.6155 12.2874 25.2837 14.9534 25.2837 18.2422Z" fill="white"/>
<path d="M81.7342 0.0117188C79.5479 0.0117188 77.7721 1.78336 77.7721 3.9738L77.7112 16.8176C77.7112 19.0058 79.4872 20.7796 81.6776 20.7796C83.8639 20.7796 85.6397 19.0058 85.6397 16.8176L85.7006 3.9738C85.7006 1.78336 83.9247 0.0117188 81.7342 0.0117188Z" fill="#40596B"/>
<path d="M19.3899 0.0117188C17.2036 0.0117188 15.4278 1.78336 15.4278 3.9738L15.3668 16.8156C15.3668 19.0039 17.1428 20.7777 19.3289 20.7777C21.5193 20.7777 23.291 19.0039 23.291 16.8156L23.3519 3.97183C23.3521 1.78336 21.5803 0.0117188 19.3899 0.0117188Z" fill="#40596B"/>
</g>
<defs>
<clipPath id="clip0">
<rect width="101" height="101" fill="white"/>
</clipPath>
</defs>
</svg>
