<svg width="22" height="22" viewBox="0 0 22 22" fill="none" xmlns="http://www.w3.org/2000/svg">
<path d="M17.875 22H4.125C1.84665 22 0 20.1534 0 17.875V4.125C0 1.84665 1.84665 0 4.125 0H17.875C20.1534 0 22 1.84665 22 4.125V17.875C22 20.1534 20.1534 22 17.875 22Z" fill="#FFB6AA"/>
<path d="M11.9167 11.0001L15.8105 7.10613C16.0632 6.85346 16.0632 6.44348 15.8105 6.18986C15.5578 5.93624 15.1478 5.93719 14.8942 6.18986L11.0002 10.0836L7.10614 6.18986C6.85346 5.93719 6.44349 5.93719 6.18986 6.18986C5.93624 6.44253 5.93719 6.85251 6.18986 7.10613L10.0837 11.0001L6.18986 14.8942C5.93719 15.1468 5.93719 15.5568 6.18986 15.8104C6.31608 15.9369 6.4824 16 6.64752 16C6.8136 16 6.97897 15.9369 7.10519 15.8104L11.0002 11.9167L14.8942 15.8104C15.0204 15.9369 15.1868 16 15.3519 16C15.517 16 15.6833 15.9369 15.8095 15.8104C16.0622 15.5578 16.0622 15.1478 15.8095 14.8942L11.9167 11.0001Z" fill="#FF2500"/>
</svg>
