<svg width="24" height="24" viewBox="0 0 24 24" fill="none" xmlns="http://www.w3.org/2000/svg">
<path d="M24 4.31063V19.6894C24 22.0664 22.0664 24 19.6894 24H4.31063C1.93359 24 0 22.0664 0 19.6894V4.31063C0 1.93359 1.93359 0 4.31063 0H19.6894C22.0664 0 24 1.93359 24 4.31063Z" fill="#235390"/>
<path d="M24 4.31063V19.6894C24 22.0664 22.0664 24 19.6894 24H12V0H19.6894C22.0664 0 24 1.93359 24 4.31063Z" fill="#235390"/>
<path d="M20.2823 18.7295H3.71758C2.78383 18.7295 2.78336 17.3176 3.71758 17.3176H20.2823C21.216 17.3176 21.2165 18.7295 20.2823 18.7295Z" fill="white"/>
<path d="M20.2823 18.7295H12V17.3176H20.2823C21.2161 17.3176 21.2166 18.7295 20.2823 18.7295Z" fill="#C200AF"/>
<path d="M20.2113 12.635H3.6466C2.71285 12.635 2.71285 11.2236 3.6466 11.2236H20.2113C21.1455 11.2236 21.1455 12.635 20.2113 12.635Z" fill="white"/>
<path d="M20.2115 12.635H12V11.2236H20.2115C21.1458 11.2236 21.1458 12.635 20.2115 12.635Z" fill="#C200AF"/>
<path d="M20.2113 6.61184H3.6466C2.71285 6.61184 2.71285 5.19995 3.6466 5.19995H20.2113C21.1455 5.19995 21.1455 6.61184 20.2113 6.61184Z" fill="white"/>
<path d="M20.2115 6.61184H12V5.19995H20.2115C21.1458 5.19995 21.1458 6.61184 20.2115 6.61184Z" fill="#C200AF"/>
<path d="M16.5169 14.2118C17.7384 14.2118 18.7287 13.2216 18.7287 12.0001C18.7287 10.7786 17.7384 9.78833 16.5169 9.78833C15.2954 9.78833 14.3052 10.7786 14.3052 12.0001C14.3052 13.2216 15.2954 14.2118 16.5169 14.2118Z" fill="#58B354"/>
<path d="M18.7293 11.9999C18.7293 13.2197 17.7373 14.2116 16.5176 14.2116V9.78809C17.7373 9.78813 18.7293 10.7801 18.7293 11.9999Z" fill="#00A963"/>
<path d="M10.4935 20.2353C11.715 20.2353 12.7053 19.245 12.7053 18.0235C12.7053 16.802 11.715 15.8118 10.4935 15.8118C9.27198 15.8118 8.28174 16.802 8.28174 18.0235C8.28174 19.245 9.27198 20.2353 10.4935 20.2353Z" fill="#FFEC00"/>
<path d="M12.7059 18.0236C12.7059 19.2433 11.7139 20.2353 10.4941 20.2353V15.8118C11.7139 15.8118 12.7059 16.8038 12.7059 18.0236Z" fill="#FFD92E"/>
<path d="M7.48177 8.18814C8.70329 8.18814 9.69352 7.19791 9.69352 5.97639C9.69352 4.75488 8.70329 3.76465 7.48177 3.76465C6.26025 3.76465 5.27002 4.75488 5.27002 5.97639C5.27002 7.19791 6.26025 8.18814 7.48177 8.18814Z" fill="#FF2828"/>
<path d="M9.69398 5.97644C9.69398 7.18066 8.72737 8.16231 7.5293 8.18725V3.76562C8.72737 3.79056 9.69398 4.77222 9.69398 5.97644Z" fill="#CC0000"/>
</svg>
