<svg width="50" height="50" viewBox="0 0 50 50" fill="none" xmlns="http://www.w3.org/2000/svg">
<g clip-path="url(#clip0)">
<path d="M25.0154 49.7553C38.6874 49.7553 49.7707 38.672 49.7707 25C49.7707 11.3281 38.6874 0.244751 25.0154 0.244751C11.3435 0.244751 0.260193 11.3281 0.260193 25C0.260193 38.672 11.3435 49.7553 25.0154 49.7553Z" fill="#FFD93B"/>
<path d="M13.8679 30.1739C18.542 30.1739 22.3311 26.3917 22.3311 21.7262C22.3311 17.0606 18.542 13.2784 13.8679 13.2784C9.19377 13.2784 5.40466 17.0606 5.40466 21.7262C5.40466 26.3917 9.19377 30.1739 13.8679 30.1739Z" fill="white"/>
<path d="M44.6263 21.7262C44.6263 26.3833 40.8202 30.1739 36.1476 30.1739C31.4905 30.1739 27.6999 26.3833 27.6999 21.7262C27.6999 17.0691 31.4905 13.2784 36.1476 13.2784C40.8202 13.2784 44.6263 17.0706 44.6263 21.7262Z" fill="white"/>
<path d="M49.7722 25C49.7722 38.6773 38.6865 49.7553 25.017 49.7553C17.2346 49.7553 10.2876 46.1657 5.74658 40.5417C9.99365 43.9765 15.4011 46.0265 21.2882 46.0265C34.9578 46.0265 46.0435 34.9485 46.0435 21.2713C46.0435 15.3842 43.9934 9.97668 40.5587 5.72961C46.175 10.2707 49.7722 17.2176 49.7722 25Z" fill="#F4C534"/>
<path d="M36.3038 21.7138C36.3038 23.9 34.8572 25.6731 33.0686 25.6731C31.294 25.6731 29.8334 23.9 29.8334 21.7138C29.8334 19.54 31.2924 17.7793 33.0686 17.7793C34.8572 17.7793 36.3038 19.5416 36.3038 21.7138Z" fill="#3E4347"/>
<path d="M34.7025 20.4141C34.472 20.6106 34.0512 20.4667 33.7479 20.1108C33.4447 19.755 33.3688 19.3187 33.5994 19.1222C33.8407 18.9164 34.2724 19.0494 34.5772 19.4053C34.8805 19.7612 34.9439 20.2083 34.7025 20.4141Z" fill="#5A5F63"/>
<path d="M20.2021 21.7138C20.2021 23.9 18.7555 25.6731 16.9669 25.6731C15.1922 25.6731 13.7317 23.9 13.7317 21.7138C13.7317 19.54 15.1907 17.7793 16.9669 17.7793C18.7555 17.7793 20.2021 19.5416 20.2021 21.7138Z" fill="#3E4347"/>
<path d="M18.6023 20.4141C18.3717 20.6106 17.9509 20.4667 17.6476 20.1108C17.3444 19.755 17.2686 19.3187 17.4991 19.1222C17.7405 18.9164 18.1721 19.0494 18.4769 19.4053C18.7802 19.7612 18.8436 20.2083 18.6023 20.4141Z" fill="#5A5F63"/>
<path d="M49.2988 20.1789H45.9105C45.2606 15.9086 42.0425 12.8606 38.2673 12.0715C33.8887 11.1587 29.866 13.17 27.7772 16.512C26.5085 18.5543 23.4296 18.3996 22.2537 16.5275C20.1959 13.201 16.2042 11.1896 11.8565 12.0561C8.03493 12.8142 4.7858 15.8776 4.1205 20.1789H0.732129C-0.103361 20.1789 -0.211665 23.2733 0.345328 23.2733H4.1205C4.86316 27.9922 8.96325 31.5972 13.8679 31.5972C19.3295 31.5972 23.8319 27.1568 23.739 21.5868C23.7236 19.823 26.3229 19.7921 26.2919 21.5249C26.1681 27.1877 30.7633 31.5972 36.1476 31.5972C41.0832 31.5972 45.1678 27.9922 45.9105 23.2733H49.6856C50.289 23.2887 49.9487 20.1789 49.2988 20.1789ZM13.8679 29.4002C9.64402 29.4002 6.17828 25.9654 6.17828 21.7261C6.17828 17.4867 9.64402 14.0519 13.8679 14.0519C18.1072 14.0519 21.5575 17.4867 21.5575 21.7261C21.5575 25.967 18.1072 29.4002 13.8679 29.4002ZM36.1476 29.4002C31.9237 29.4002 28.4735 25.9654 28.4735 21.7261C28.4735 17.4867 31.9237 14.0519 36.1476 14.0519C40.3869 14.0519 43.8527 17.4867 43.8527 21.7261C43.8527 25.967 40.3869 29.4002 36.1476 29.4002Z" fill="#E24B4B"/>
<path d="M39.0486 34.3203C40.7258 35.1001 36.2915 44.2441 25.0186 44.2533C13.7441 44.2425 9.30983 35.1017 10.9885 34.3203C12.3563 33.3409 17.5982 37.8557 25.0186 37.6282C32.4374 37.851 37.6793 33.3378 39.0486 34.3203Z" fill="#3E4347"/>
</g>
<defs>
<clipPath id="clip0">
<rect width="50" height="50" fill="white"/>
</clipPath>
</defs>
</svg>
